<?xml version="1.0" encoding="UTF-8"?>
<!DOCTYPE svg PUBLIC "-//W3C//DTD SVG 1.1//EN" "http://www.w3.org/Graphics/SVG/1.1/DTD/svg11.dtd">
<!-- Creator: CorelDRAW 2018 (64-Bit Evaluation Version) -->
<svg xmlns="http://www.w3.org/2000/svg" xml:space="preserve" width="47.2795mm" height="6.0833mm" version="1.1" style="shape-rendering:geometricPrecision; text-rendering:geometricPrecision; image-rendering:optimizeQuality; fill-rule:evenodd; clip-rule:evenodd"
viewBox="0 0 780.6 100.44"
 xmlns:xlink="http://www.w3.org/1999/xlink">
 <defs>
  <style type="text/css">
   <![CDATA[
    .fil0 {fill:#606062;fill-rule:nonzero}
    .fil1 {fill:url(#id0);fill-rule:nonzero}
   ]]>
  </style>
  <linearGradient id="id0" gradientUnits="userSpaceOnUse" x1="514.42" y1="50.19" x2="15.77" y2="50.19">
   <stop offset="0" style="stop-opacity:1; stop-color:#00ACA1"/>
   <stop offset="1" style="stop-opacity:1; stop-color:#71BF4F"/>
  </linearGradient>
 </defs>
 <g id="Layer_x0020_1">
  <metadata id="CorelCorpID_0Corel-Layer"/>
  <g id="_2175431497840">
   <path class="fil0" d="M-0 30.68l0 68.36 14.39 0 0 -68.36 -14.39 0zm0 -29.5l0 15.8 14.39 0 0 -15.8 -14.39 0zm73.77 0l-39.69 0 0 13.28 39.69 0c12.88,0 19.69,8.67 19.69,18.31 0,9.51 -6.97,18.17 -19.69,18.17l-39.69 0 0 48.09 14.39 0 0 -34.81 25.3 0c21.36,0 34.69,-14.12 34.69,-31.45 0,-17.47 -13.03,-31.59 -34.69,-31.59zm43.78 77.02c3.18,6.85 10,13.56 19.08,17.47l6.36 -12.3c-5,-2.24 -9.85,-6.71 -11.66,-10.48l-13.78 5.31zm42.56 -35.51c-16.81,-4.33 -24.24,-7.69 -24.24,-15.24 0,-6.85 5.91,-13.84 21.51,-13.84 1.51,0 3.48,0.14 4.85,0.28l8.18 -12.02c-4.09,-1.12 -8.48,-1.68 -13.48,-1.68 -21.96,0 -36.05,10.9 -36.51,26.84 -0.61,16.91 13.33,22.93 34.54,28.52 18.02,4.75 27.57,8.11 27.57,16.91 0,8.81 -10,14.54 -22.72,14.4l-6.82 13.14c2.27,0.28 4.7,0.42 7.27,0.42 24.39,0 37.57,-13.14 37.57,-28.38 0,-17.61 -16.21,-23.76 -37.72,-29.36zm99.82 44.03c-21.96,0 -36.65,-16.36 -36.65,-36.48 0,-20.27 14.69,-36.48 36.65,-36.48 13.48,0 24.24,6.15 30.45,15.52l13.33 -6.01c-8.94,-13.84 -24.69,-22.92 -43.78,-22.92 -29.84,0 -51.5,22.23 -51.5,49.9 0,27.54 21.66,49.77 51.5,49.77 19.09,0 34.84,-9.09 43.78,-22.79l-13.33 -6.15c-6.21,9.51 -16.97,15.66 -30.45,15.66zm-8.78 -36.34c0,4.61 4.09,8.39 9.09,8.39 5.15,0 9.24,-3.77 9.24,-8.39 0,-4.61 -4.09,-8.53 -9.24,-8.53 -5,0 -9.09,3.91 -9.09,8.53z"/>
   <path class="fil1" d="M392.31 0.84l-36.5 97.85 0 0.14 20.6 0 38.32 -97.99 -22.41 0zm-52.4 0l-22.41 0 28.92 74.18 10.6 -28.26 -17.11 -45.92zm84.66 97.85l20.14 0 0 -68.36 -20.14 0 0 68.36zm0 -97.85l0 15.8 20.14 0 0 -15.8 -20.14 0zm76.33 39c-16.36,-4.61 -20.6,-7.69 -20.6,-12.3 0,-5.45 5.91,-9.09 15.75,-9.09 0.3,0 0.76,0 1.06,0l12.42 -16.77c-4.24,-1.12 -8.63,-1.68 -13.18,-1.68 -27.26,0 -37.41,15.38 -37.41,28.24 0,14.4 9.84,22.79 34.38,29.63 17.72,4.89 22.41,7.27 22.41,13.28 0,5.59 -7.42,9.92 -19.08,10.34l-6.82 18.45c2.57,0.28 5.15,0.42 7.72,0.42 27.41,0.28 39.68,-13.84 39.68,-30.05 0,-18.03 -15.75,-24.74 -36.35,-30.47zm-44.83 36.21c1.67,8.11 8.33,15.24 18.78,19.71l6.97 -17.75c-4.69,-2.65 -6.51,-5.73 -7.27,-8.53l-18.48 6.57zm93.29 22.65l20.14 0 0 -68.36 -20.14 0 0 68.36zm0 -97.85l0 15.8 20.14 0 0 -15.8 -20.14 0zm84.5 -0.84c-30.44,0 -51.49,21.81 -51.49,49.9 0,28.1 21.05,49.9 51.49,49.9 30.44,0 51.34,-21.81 51.34,-49.9 0,-28.1 -20.9,-49.9 -51.34,-49.9zm0 81.22c-19.38,0 -30.89,-13.42 -30.89,-31.31 0,-17.89 11.51,-31.31 30.89,-31.31 19.23,0 30.74,13.42 30.74,31.31 0,17.89 -11.51,31.31 -30.74,31.31zm0 -40.82c-5.76,0 -10.3,4.33 -10.3,9.51 0,5.17 4.54,9.51 10.3,9.51 5.6,0 10.15,-4.33 10.15,-9.51 0,-5.17 -4.54,-9.51 -10.15,-9.51zm126.6 15.38l-61.03 -55.78 -1.36 0 0 98.69 20.14 0 0 -54.8 61.03 55.91 1.36 0 0 -98.97 -20.14 0 0 54.94z"/>
  </g>
 </g>
</svg>
